<svg xmlns="http://www.w3.org/2000/svg" style="display: none;">
    <symbol id="logo" viewBox="0 0 1396 878">
        <path d="M642.725 592.449L495.944 739.232H1173.52V877.592H1069.62V877.265H438.634L300.231 738.863L382.315 656.779L382.521 656.985L544.891 494.615L642.725 592.449ZM164.359 438.823L326.41 600.874L244.326 682.957L82.2754 520.906L82.084 521.098L0.000976562 439.015L0.192383 438.823L0 438.632L82.084 356.549L82.2754 356.739L221.594 217.421H385.761L164.359 438.823ZM1312.76 356.739L1312.95 356.549L1395.03 438.632L1394.84 438.823L1395.03 439.015L1312.95 521.098L1312.76 520.906L1173.49 660.17H1009.33L1230.67 438.823L1069.64 277.793L1151.73 195.709L1312.76 356.739ZM698.846 340.659L699.062 340.443L796.896 438.278L796.681 438.494L919.765 561.578L821.93 659.413L698.846 536.329L698.63 536.544L600.796 438.71L601.012 438.494L478.111 315.594L575.946 217.76L698.846 340.659ZM323.376 0.0078125H956.026L1095.82 139.805L1013.74 221.888L1013.51 221.662L852.802 382.373L754.967 284.538L901.146 138.359H222.797V0H323.376V0.0078125Z" fill="url(#paint0_linear_21_7)"/>
        <defs>
            <linearGradient id="paint0_linear_21_7" x1="697.516" y1="-258.693" x2="697.516" y2="1136.34" gradientUnits="userSpaceOnUse">
                <stop stop-color="#1CF97A"/>
                <stop offset="1" stop-color="#00DC65"/>
            </linearGradient>
        </defs>
    </symbol>

    <symbol id="icon-sun" viewBox="0 0 24 24">
        <circle cx="12" cy="12" r="5" stroke="currentColor" stroke-width="2" fill="none"/>
        <g stroke="currentColor" stroke-width="2">
            <line x1="12" y1="1" x2="12" y2="3"/>
            <line x1="12" y1="21" x2="12" y2="23"/>
            <line x1="4.22" y1="4.22" x2="5.64" y2="5.64"/>
            <line x1="18.36" y1="18.36" x2="19.78" y2="19.78"/>
            <line x1="1" y1="12" x2="3" y2="12"/>
            <line x1="21" y1="12" x2="23" y2="12"/>
            <line x1="4.22" y1="19.78" x2="5.64" y2="18.36"/>
            <line x1="18.36" y1="5.64" x2="19.78" y2="4.22"/>
        </g>
    </symbol>

    <symbol id="icon-moon" viewBox="0 0 24 24">
        <path d="M21 12.79A9 9 0 1 1 11.21 3 7 7 0 0 0 21 12.79z" 
              stroke="currentColor" stroke-width="2" fill="none"/>
    </symbol>

    <symbol id="icon-arrow-left" viewBox="0 0 24 24">
        <path d="M6 12H18M6 12L11 7M6 12L11 17" stroke="currentColor" stroke-width="2" stroke-linecap="round" stroke-linejoin="round"/>
    </symbol>

    <symbol id="icon-menu" viewBox="0 0 24 24">
        <line x1="3" y1="6" x2="21" y2="6" stroke="currentColor" stroke-width="2" stroke-linecap="round"/>
        <line x1="3" y1="12" x2="21" y2="12" stroke="currentColor" stroke-width="2" stroke-linecap="round"/>
        <line x1="3" y1="18" x2="21" y2="18" stroke="currentColor" stroke-width="2" stroke-linecap="round"/>
    </symbol>

    <symbol id="icon-plus" viewBox="0 0 24 24" fill="none">
        <line 
            x1="12" y1="5" x2="12" y2="19" 
            stroke="currentColor" 
            stroke-width="2" 
            stroke-linecap="round" 
            stroke-linejoin="round"
        />
        <line 
            x1="5" y1="12" x2="19" y2="12" 
            stroke="currentColor" 
            stroke-width="2" 
            stroke-linecap="round" 
            stroke-linejoin="round"
        />
    </symbol>    
</svg>
